<svg xmlns="http://www.w3.org/2000/svg" viewBox="0 0 256 256" role="img" aria-label="Verifika² verificado">
  <defs>
    <linearGradient id="ring" x1="0" y1="0" x2="1" y2="1">
      <stop offset="0" stop-color="#1E293B" />
      <stop offset="1" stop-color="#0B1D33" />
    </linearGradient>
    <linearGradient id="gold" x1="0" y1="0" x2="1" y2="1">
      <stop offset="0" stop-color="#F9D17B" />
      <stop offset="0.55" stop-color="#F2C14E" />
      <stop offset="1" stop-color="#B9892B" />
    </linearGradient>
  </defs>
  <circle cx="128" cy="128" r="110" fill="url(#ring)" />
  <circle cx="128" cy="128" r="98" fill="#0F2742" />
  <circle cx="128" cy="128" r="98" fill="none" stroke="url(#gold)" stroke-width="10" />
  <!-- Check “V” fiel al logo original (trazado desde PNG) -->
  <g transform="translate(128 134) scale(1.12) translate(-75 -89)">
    <g transform="translate(0,162) scale(0.1,-0.1)" fill="#22C55E" stroke="none">
      <path d="M1309 1357 c-290 -98 -503 -324 -714 -759 l-51 -106 -64 151 c-123 295 -135 316 -176 333 -21 9 -79 18 -129 21 -127 8 -131 1 -77 -115 23 -48 65 -143 95 -212 30 -69 71 -160 91 -202 19 -42 55 -123 80 -180 76 -176 86 -196 102 -202 26 -10 152 -7 177 5 18 8 43 53 102 187 109 248 274 574 352 700 90 145 142 211 245 316 49 49 88 91 88 93 0 8 -32 0 -121 -30z" />
    </g>
  </g>
  <!-- Superíndice “²” (extraído del wordmark original) -->
  <g transform="translate(186 12) scale(0.65) translate(-707 -6) translate(0 162) scale(0.1 -0.1)">
    <path fill="#F2C14E" d="M7215 1547 c-128 -34 -176 -97 -115 -152 18 -16 22 -15 83 14 124 59 227 35 227 -54 0 -80 -47 -141 -222 -287 -102 -85 -108 -92 -108 -128 l0 -38 193 -6 c105 -4 221 -5 257 -2 l65 5 3 50 3 51 -158 0 -158 1 35 30 c102 91 191 186 211 226 42 87 32 188 -24 241 -55 51 -193 74 -292 49z" />
  </g>
</svg>
