<svg xmlns="http://www.w3.org/2000/svg"
  width="766.000000pt" height="162.000000pt" viewBox="0 0 766.000000 162.000000"
  role="img" aria-label="verifika2" preserveAspectRatio="xMidYMid meet">
<g transform="translate(0.000000,162.000000) scale(0.100000,-0.100000)" fill="#22C55E" stroke="none">
  <path d="M1309 1357 c-290 -98 -503 -324 -714 -759 l-51 -106 -64 151 c-123 295 -135 316 -176 333 -21 9 -79 18 -129 21 -127 8 -131 1 -77 -115 23 -48 65 -143 95 -212 30 -69 71 -160 91 -202 19 -42 55 -123 80 -180 76 -176 86 -196 102 -202 26 -10 152 -7 177 5 18 8 43 53 102 187 109 248 274 574 352 700 90 145 142 211 245 316 49 49 88 91 88 93 0 8 -32 0 -121 -30z" />
</g>
<g transform="translate(0.000000,162.000000) scale(0.100000,-0.100000)" fill="#0B1D33" stroke="none">
  <path d="M7215 1547 c-128 -34 -176 -97 -115 -152 18 -16 22 -15 83 14 124 59 227 35 227 -54 0 -80 -47 -141 -222 -287 -102 -85 -108 -92 -108 -128 l0 -38 193 -6 c105 -4 221 -5 257 -2 l65 5 3 50 3 51 -158 0 -158 1 35 30 c102 91 191 186 211 226 42 87 32 188 -24 241 -55 51 -193 74 -292 49z" />
  <path d="M3993 1480 c-187 -37 -263 -150 -263 -391 l0 -119 -75 0 -76 0 3 -72 3 -73 73 -3 72 -3 0 -360 0 -360 118 3 117 3 3 358 2 357 130 0 130 0 0 75 0 75 -131 0 -131 0 4 128 c5 143 14 174 68 210 31 21 43 23 110 19 41 -3 85 -8 97 -12 20 -6 21 -3 25 57 2 36 0 68 -6 75 -13 14 -152 43 -198 42 -18 -1 -52 -5 -75 -9z" />
  <path d="M4993 1479 c-35 -4 -67 -11 -73 -14 -7 -4 -10 -242 -10 -686 l0 -680 118 3 117 3 5 174 5 175 85 -69 c47 -38 119 -96 160 -130 41 -34 104 -82 139 -108 l63 -47 144 0 c79 0 144 3 144 8 0 4 -18 17 -39 29 -62 36 -501 407 -501 424 0 3 26 26 58 50 31 24 137 105 235 182 98 76 185 141 193 144 8 3 14 11 14 19 0 11 -24 14 -118 14 l-117 0 -115 -90 c-63 -49 -167 -130 -230 -180 l-115 -90 -3 432 c-2 330 -5 434 -15 440 -14 9 -59 8 -144 -3z" />
  <path d="M3250 1438 c-119 -34 -137 -198 -28 -254 42 -22 109 -22 143 0 57 38 82 127 53 191 -23 51 -104 82 -168 63z" />
  <path d="M4453 1420 c-46 -27 -66 -72 -61 -132 13 -126 166 -170 247 -70 26 31 31 45 31 90 0 50 -3 58 -39 93 -35 36 -43 39 -92 39 -36 0 -65 -7 -86 -20z" />
  <path d="M1560 990 c-65 -14 -201 -82 -248 -125 -61 -54 -100 -123 -123 -215 -19 -74 -20 -92 -10 -169 22 -171 103 -282 265 -361 93 -45 167 -60 306 -60 159 0 314 52 379 125 26 30 31 44 31 85 0 58 -6 61 -70 24 -229 -131 -462 -123 -588 20 -38 44 -59 91 -64 143 l-3 38 380 5 380 5 3 60 c8 142 -51 263 -165 341 -101 69 -159 86 -303 90 -69 2 -145 -1 -170 -6z m250 -152 c77 -23 127 -82 140 -165 l7 -43 -259 0 c-253 0 -258 0 -258 20 0 32 28 92 58 123 71 75 196 101 312 65z" />
  <path d="M2830 986 c-56 -15 -127 -63 -173 -117 l-35 -40 -6 28 c-2 15 -8 47 -11 71 l-7 42 -109 0 -109 0 2 -432 3 -433 118 -3 117 -3 0 263 c0 273 6 324 38 367 39 52 192 81 305 58 l37 -8 0 101 c0 99 0 101 -26 110 -33 13 -88 12 -144 -4z" />
  <path d="M6335 993 c-109 -15 -239 -70 -286 -119 -18 -19 -23 -37 -24 -77 l0 -52 38 -3 c28 -2 50 5 95 32 88 55 161 76 260 76 47 0 102 -5 123 -11 77 -24 139 -99 139 -170 l0 -29 -123 0 c-325 0 -520 -67 -579 -199 -26 -56 -25 -147 0 -204 88 -199 507 -238 685 -63 36 36 37 36 37 13 0 -14 3 -39 6 -56 l7 -31 108 0 109 0 0 258 c-1 372 -12 430 -97 516 -95 96 -302 146 -498 119z m345 -539 c0 -134 -44 -199 -158 -234 -130 -40 -249 -17 -299 59 -47 70 -17 145 78 194 61 31 138 44 287 46 l92 1 0 -66z" />
  <path d="M3175 957 c-3 -6 -4 -201 -3 -432 l3 -420 118 -3 117 -3 0 436 0 435 -115 0 c-83 0 -117 -3 -120 -13z" />
  <path d="M4417 963 c-4 -3 -7 -199 -7 -435 l0 -428 120 0 120 0 0 435 0 435 -113 0 c-63 0 -117 -3 -120 -7z" />
</g>
</svg>

